G04 #@! TF.GenerationSoftware,KiCad,Pcbnew,(6.0.6-0)*
G04 #@! TF.CreationDate,2022-07-25T17:11:54+09:00*
G04 #@! TF.ProjectId,livecharm-20220717,6c697665-6368-4617-926d-2d3230323230,rev?*
G04 #@! TF.SameCoordinates,PX68290a0PY2e063a0*
G04 #@! TF.FileFunction,Legend,Bot*
G04 #@! TF.FilePolarity,Positive*
%FSLAX46Y46*%
G04 Gerber Fmt 4.6, Leading zero omitted, Abs format (unit mm)*
G04 Created by KiCad (PCBNEW (6.0.6-0)) date 2022-07-25 17:11:54*
%MOMM*%
%LPD*%
G01*
G04 APERTURE LIST*
%ADD10C,0.150000*%
G04 APERTURE END LIST*
D10*
X16740238Y-26074285D02*
X16692619Y-25931428D01*
X16692619Y-25693333D01*
X16740238Y-25598095D01*
X16787857Y-25550476D01*
X16883095Y-25502857D01*
X16978333Y-25502857D01*
X17073571Y-25550476D01*
X17121190Y-25598095D01*
X17168809Y-25693333D01*
X17216428Y-25883809D01*
X17264047Y-25979047D01*
X17311666Y-26026666D01*
X17406904Y-26074285D01*
X17502142Y-26074285D01*
X17597380Y-26026666D01*
X17645000Y-25979047D01*
X17692619Y-25883809D01*
X17692619Y-25645714D01*
X17645000Y-25502857D01*
X16692619Y-25074285D02*
X17692619Y-25074285D01*
X17692619Y-24836190D01*
X17645000Y-24693333D01*
X17549761Y-24598095D01*
X17454523Y-24550476D01*
X17264047Y-24502857D01*
X17121190Y-24502857D01*
X16930714Y-24550476D01*
X16835476Y-24598095D01*
X16740238Y-24693333D01*
X16692619Y-24836190D01*
X16692619Y-25074285D01*
X16597380Y-24312380D02*
X16597380Y-23550476D01*
X16692619Y-23312380D02*
X17692619Y-23312380D01*
X16978333Y-22979047D01*
X17692619Y-22645714D01*
X16692619Y-22645714D01*
X17692619Y-21979047D02*
X17692619Y-21788571D01*
X17645000Y-21693333D01*
X17549761Y-21598095D01*
X17359285Y-21550476D01*
X17025952Y-21550476D01*
X16835476Y-21598095D01*
X16740238Y-21693333D01*
X16692619Y-21788571D01*
X16692619Y-21979047D01*
X16740238Y-22074285D01*
X16835476Y-22169523D01*
X17025952Y-22217142D01*
X17359285Y-22217142D01*
X17549761Y-22169523D01*
X17645000Y-22074285D01*
X17692619Y-21979047D01*
X16692619Y-21121904D02*
X17692619Y-21121904D01*
X17692619Y-20883809D01*
X17645000Y-20740952D01*
X17549761Y-20645714D01*
X17454523Y-20598095D01*
X17264047Y-20550476D01*
X17121190Y-20550476D01*
X16930714Y-20598095D01*
X16835476Y-20645714D01*
X16740238Y-20740952D01*
X16692619Y-20883809D01*
X16692619Y-21121904D01*
X17216428Y-20121904D02*
X17216428Y-19788571D01*
X16692619Y-19645714D02*
X16692619Y-20121904D01*
X17692619Y-20121904D01*
X17692619Y-19645714D01*
X22304285Y-31916666D02*
X21828095Y-31916666D01*
X22399523Y-32202380D02*
X22066190Y-31202380D01*
X21732857Y-32202380D01*
X20875714Y-32202380D02*
X21447142Y-32202380D01*
X21161428Y-32202380D02*
X21161428Y-31202380D01*
X21256666Y-31345238D01*
X21351904Y-31440476D01*
X21447142Y-31488095D01*
X14470000Y-15533571D02*
X14517619Y-15628809D01*
X14517619Y-15771666D01*
X14470000Y-15914523D01*
X14374761Y-16009761D01*
X14279523Y-16057380D01*
X14089047Y-16105000D01*
X13946190Y-16105000D01*
X13755714Y-16057380D01*
X13660476Y-16009761D01*
X13565238Y-15914523D01*
X13517619Y-15771666D01*
X13517619Y-15676428D01*
X13565238Y-15533571D01*
X13612857Y-15485952D01*
X13946190Y-15485952D01*
X13946190Y-15676428D01*
X13803333Y-15105000D02*
X13803333Y-14628809D01*
X13517619Y-15200238D02*
X14517619Y-14866904D01*
X13517619Y-14533571D01*
X13517619Y-14200238D02*
X14517619Y-14200238D01*
X13517619Y-13724047D02*
X14517619Y-13724047D01*
X13517619Y-13152619D01*
X14517619Y-13152619D01*
X10977619Y-21343809D02*
X11977619Y-21343809D01*
X11977619Y-21105714D01*
X11930000Y-20962857D01*
X11834761Y-20867619D01*
X11739523Y-20820000D01*
X11549047Y-20772380D01*
X11406190Y-20772380D01*
X11215714Y-20820000D01*
X11120476Y-20867619D01*
X11025238Y-20962857D01*
X10977619Y-21105714D01*
X10977619Y-21343809D01*
X10977619Y-20343809D02*
X11977619Y-20343809D01*
X10977619Y-19867619D02*
X11977619Y-19867619D01*
X10977619Y-19296190D01*
X11977619Y-19296190D01*
X9779047Y-31043571D02*
X10540952Y-31043571D01*
X22137619Y-15628809D02*
X21137619Y-15295476D01*
X22137619Y-14962142D01*
X21137619Y-14628809D02*
X21804285Y-14628809D01*
X22137619Y-14628809D02*
X22090000Y-14676428D01*
X22042380Y-14628809D01*
X22090000Y-14581190D01*
X22137619Y-14628809D01*
X22042380Y-14628809D01*
X21804285Y-14152619D02*
X21137619Y-14152619D01*
X21709047Y-14152619D02*
X21756666Y-14105000D01*
X21804285Y-14009761D01*
X21804285Y-13866904D01*
X21756666Y-13771666D01*
X21661428Y-13724047D01*
X21137619Y-13724047D01*
X17399047Y-31043571D02*
X18160952Y-31043571D01*
X17780000Y-30662619D02*
X17780000Y-31424523D01*
X19550000Y-15366904D02*
X19597619Y-15462142D01*
X19597619Y-15605000D01*
X19550000Y-15747857D01*
X19454761Y-15843095D01*
X19359523Y-15890714D01*
X19169047Y-15938333D01*
X19026190Y-15938333D01*
X18835714Y-15890714D01*
X18740476Y-15843095D01*
X18645238Y-15747857D01*
X18597619Y-15605000D01*
X18597619Y-15509761D01*
X18645238Y-15366904D01*
X18692857Y-15319285D01*
X19026190Y-15319285D01*
X19026190Y-15509761D01*
X18597619Y-14890714D02*
X19597619Y-14890714D01*
X18597619Y-14319285D01*
X19597619Y-14319285D01*
X18597619Y-13843095D02*
X19597619Y-13843095D01*
X19597619Y-13605000D01*
X19550000Y-13462142D01*
X19454761Y-13366904D01*
X19359523Y-13319285D01*
X19169047Y-13271666D01*
X19026190Y-13271666D01*
X18835714Y-13319285D01*
X18740476Y-13366904D01*
X18645238Y-13462142D01*
X18597619Y-13605000D01*
X18597619Y-13843095D01*
X5897619Y-23185238D02*
X5897619Y-23661428D01*
X6897619Y-23661428D01*
X5897619Y-22280476D02*
X6373809Y-22613809D01*
X5897619Y-22851904D02*
X6897619Y-22851904D01*
X6897619Y-22470952D01*
X6850000Y-22375714D01*
X6802380Y-22328095D01*
X6707142Y-22280476D01*
X6564285Y-22280476D01*
X6469047Y-22328095D01*
X6421428Y-22375714D01*
X6373809Y-22470952D01*
X6373809Y-22851904D01*
X5992857Y-21280476D02*
X5945238Y-21328095D01*
X5897619Y-21470952D01*
X5897619Y-21566190D01*
X5945238Y-21709047D01*
X6040476Y-21804285D01*
X6135714Y-21851904D01*
X6326190Y-21899523D01*
X6469047Y-21899523D01*
X6659523Y-21851904D01*
X6754761Y-21804285D01*
X6850000Y-21709047D01*
X6897619Y-21566190D01*
X6897619Y-21470952D01*
X6850000Y-21328095D01*
X6802380Y-21280476D01*
X5897619Y-20375714D02*
X5897619Y-20851904D01*
X6897619Y-20851904D01*
X5897619Y-20042380D02*
X6897619Y-20042380D01*
X5897619Y-19470952D02*
X6469047Y-19899523D01*
X6897619Y-19470952D02*
X6326190Y-20042380D01*
X8961428Y-22288333D02*
X8913809Y-22145476D01*
X8866190Y-22097857D01*
X8770952Y-22050238D01*
X8628095Y-22050238D01*
X8532857Y-22097857D01*
X8485238Y-22145476D01*
X8437619Y-22240714D01*
X8437619Y-22621666D01*
X9437619Y-22621666D01*
X9437619Y-22288333D01*
X9390000Y-22193095D01*
X9342380Y-22145476D01*
X9247142Y-22097857D01*
X9151904Y-22097857D01*
X9056666Y-22145476D01*
X9009047Y-22193095D01*
X8961428Y-22288333D01*
X8961428Y-22621666D01*
X8532857Y-21050238D02*
X8485238Y-21097857D01*
X8437619Y-21240714D01*
X8437619Y-21335952D01*
X8485238Y-21478809D01*
X8580476Y-21574047D01*
X8675714Y-21621666D01*
X8866190Y-21669285D01*
X9009047Y-21669285D01*
X9199523Y-21621666D01*
X9294761Y-21574047D01*
X9390000Y-21478809D01*
X9437619Y-21335952D01*
X9437619Y-21240714D01*
X9390000Y-21097857D01*
X9342380Y-21050238D01*
X8437619Y-20145476D02*
X8437619Y-20621666D01*
X9437619Y-20621666D01*
X8437619Y-19812142D02*
X9437619Y-19812142D01*
X8437619Y-19240714D02*
X9009047Y-19669285D01*
X9437619Y-19240714D02*
X8866190Y-19812142D01*
M02*
