G04 #@! TF.GenerationSoftware,KiCad,Pcbnew,(6.0.6-0)*
G04 #@! TF.CreationDate,2022-07-25T17:11:54+09:00*
G04 #@! TF.ProjectId,livecharm-20220717,6c697665-6368-4617-926d-2d3230323230,rev?*
G04 #@! TF.SameCoordinates,PX68290a0PY2e063a0*
G04 #@! TF.FileFunction,Legend,Top*
G04 #@! TF.FilePolarity,Positive*
%FSLAX46Y46*%
G04 Gerber Fmt 4.6, Leading zero omitted, Abs format (unit mm)*
G04 Created by KiCad (PCBNEW (6.0.6-0)) date 2022-07-25 17:11:54*
%MOMM*%
%LPD*%
G01*
G04 APERTURE LIST*
%ADD10C,0.150000*%
%ADD11C,0.203200*%
G04 APERTURE END LIST*
D10*
X20375714Y-27122380D02*
X20375714Y-26122380D01*
X20613809Y-26122380D01*
X20756666Y-26170000D01*
X20851904Y-26265238D01*
X20899523Y-26360476D01*
X20947142Y-26550952D01*
X20947142Y-26693809D01*
X20899523Y-26884285D01*
X20851904Y-26979523D01*
X20756666Y-27074761D01*
X20613809Y-27122380D01*
X20375714Y-27122380D01*
X21899523Y-27122380D02*
X21328095Y-27122380D01*
X21613809Y-27122380D02*
X21613809Y-26122380D01*
X21518571Y-26265238D01*
X21423333Y-26360476D01*
X21328095Y-26408095D01*
X22851904Y-27122380D02*
X22280476Y-27122380D01*
X22566190Y-27122380D02*
X22566190Y-26122380D01*
X22470952Y-26265238D01*
X22375714Y-26360476D01*
X22280476Y-26408095D01*
X20375714Y-24582380D02*
X20375714Y-23582380D01*
X20613809Y-23582380D01*
X20756666Y-23630000D01*
X20851904Y-23725238D01*
X20899523Y-23820476D01*
X20947142Y-24010952D01*
X20947142Y-24153809D01*
X20899523Y-24344285D01*
X20851904Y-24439523D01*
X20756666Y-24534761D01*
X20613809Y-24582380D01*
X20375714Y-24582380D01*
X21899523Y-24582380D02*
X21328095Y-24582380D01*
X21613809Y-24582380D02*
X21613809Y-23582380D01*
X21518571Y-23725238D01*
X21423333Y-23820476D01*
X21328095Y-23868095D01*
X22280476Y-23677619D02*
X22328095Y-23630000D01*
X22423333Y-23582380D01*
X22661428Y-23582380D01*
X22756666Y-23630000D01*
X22804285Y-23677619D01*
X22851904Y-23772857D01*
X22851904Y-23868095D01*
X22804285Y-24010952D01*
X22232857Y-24582380D01*
X22851904Y-24582380D01*
D11*
X8898571Y-20772380D02*
X8422380Y-20772380D01*
X8422380Y-19772380D01*
X9231904Y-20772380D02*
X9231904Y-20105714D01*
X9231904Y-19772380D02*
X9184285Y-19820000D01*
X9231904Y-19867619D01*
X9279523Y-19820000D01*
X9231904Y-19772380D01*
X9231904Y-19867619D01*
X9612857Y-20105714D02*
X9850952Y-20772380D01*
X10089047Y-20105714D01*
X10850952Y-20724761D02*
X10755714Y-20772380D01*
X10565238Y-20772380D01*
X10470000Y-20724761D01*
X10422380Y-20629523D01*
X10422380Y-20248571D01*
X10470000Y-20153333D01*
X10565238Y-20105714D01*
X10755714Y-20105714D01*
X10850952Y-20153333D01*
X10898571Y-20248571D01*
X10898571Y-20343809D01*
X10422380Y-20439047D01*
X11898571Y-20677142D02*
X11850952Y-20724761D01*
X11708095Y-20772380D01*
X11612857Y-20772380D01*
X11470000Y-20724761D01*
X11374761Y-20629523D01*
X11327142Y-20534285D01*
X11279523Y-20343809D01*
X11279523Y-20200952D01*
X11327142Y-20010476D01*
X11374761Y-19915238D01*
X11470000Y-19820000D01*
X11612857Y-19772380D01*
X11708095Y-19772380D01*
X11850952Y-19820000D01*
X11898571Y-19867619D01*
X12327142Y-20772380D02*
X12327142Y-19772380D01*
X12755714Y-20772380D02*
X12755714Y-20248571D01*
X12708095Y-20153333D01*
X12612857Y-20105714D01*
X12470000Y-20105714D01*
X12374761Y-20153333D01*
X12327142Y-20200952D01*
X13660476Y-20772380D02*
X13660476Y-20248571D01*
X13612857Y-20153333D01*
X13517619Y-20105714D01*
X13327142Y-20105714D01*
X13231904Y-20153333D01*
X13660476Y-20724761D02*
X13565238Y-20772380D01*
X13327142Y-20772380D01*
X13231904Y-20724761D01*
X13184285Y-20629523D01*
X13184285Y-20534285D01*
X13231904Y-20439047D01*
X13327142Y-20391428D01*
X13565238Y-20391428D01*
X13660476Y-20343809D01*
X14136666Y-20772380D02*
X14136666Y-20105714D01*
X14136666Y-20296190D02*
X14184285Y-20200952D01*
X14231904Y-20153333D01*
X14327142Y-20105714D01*
X14422380Y-20105714D01*
X14755714Y-20772380D02*
X14755714Y-20105714D01*
X14755714Y-20200952D02*
X14803333Y-20153333D01*
X14898571Y-20105714D01*
X15041428Y-20105714D01*
X15136666Y-20153333D01*
X15184285Y-20248571D01*
X15184285Y-20772380D01*
X15184285Y-20248571D02*
X15231904Y-20153333D01*
X15327142Y-20105714D01*
X15470000Y-20105714D01*
X15565238Y-20153333D01*
X15612857Y-20248571D01*
X15612857Y-20772380D01*
X16755714Y-20105714D02*
X16993809Y-20772380D01*
X17231904Y-20105714D01*
X17803333Y-19772380D02*
X17898571Y-19772380D01*
X17993809Y-19820000D01*
X18041428Y-19867619D01*
X18089047Y-19962857D01*
X18136666Y-20153333D01*
X18136666Y-20391428D01*
X18089047Y-20581904D01*
X18041428Y-20677142D01*
X17993809Y-20724761D01*
X17898571Y-20772380D01*
X17803333Y-20772380D01*
X17708095Y-20724761D01*
X17660476Y-20677142D01*
X17612857Y-20581904D01*
X17565238Y-20391428D01*
X17565238Y-20153333D01*
X17612857Y-19962857D01*
X17660476Y-19867619D01*
X17708095Y-19820000D01*
X17803333Y-19772380D01*
X18565238Y-20677142D02*
X18612857Y-20724761D01*
X18565238Y-20772380D01*
X18517619Y-20724761D01*
X18565238Y-20677142D01*
X18565238Y-20772380D01*
X18993809Y-19867619D02*
X19041428Y-19820000D01*
X19136666Y-19772380D01*
X19374761Y-19772380D01*
X19470000Y-19820000D01*
X19517619Y-19867619D01*
X19565238Y-19962857D01*
X19565238Y-20058095D01*
X19517619Y-20200952D01*
X18946190Y-20772380D01*
X19565238Y-20772380D01*
D10*
X6818333Y-32202380D02*
X6485000Y-31726190D01*
X6246904Y-32202380D02*
X6246904Y-31202380D01*
X6627857Y-31202380D01*
X6723095Y-31250000D01*
X6770714Y-31297619D01*
X6818333Y-31392857D01*
X6818333Y-31535714D01*
X6770714Y-31630952D01*
X6723095Y-31678571D01*
X6627857Y-31726190D01*
X6246904Y-31726190D01*
X7770714Y-32202380D02*
X7199285Y-32202380D01*
X7485000Y-32202380D02*
X7485000Y-31202380D01*
X7389761Y-31345238D01*
X7294523Y-31440476D01*
X7199285Y-31488095D01*
X5023809Y-9612380D02*
X5642857Y-9612380D01*
X5309523Y-9993333D01*
X5452380Y-9993333D01*
X5547619Y-10040952D01*
X5595238Y-10088571D01*
X5642857Y-10183809D01*
X5642857Y-10421904D01*
X5595238Y-10517142D01*
X5547619Y-10564761D01*
X5452380Y-10612380D01*
X5166666Y-10612380D01*
X5071428Y-10564761D01*
X5023809Y-10517142D01*
X6071428Y-10517142D02*
X6119047Y-10564761D01*
X6071428Y-10612380D01*
X6023809Y-10564761D01*
X6071428Y-10517142D01*
X6071428Y-10612380D01*
X6452380Y-9612380D02*
X7071428Y-9612380D01*
X6738095Y-9993333D01*
X6880952Y-9993333D01*
X6976190Y-10040952D01*
X7023809Y-10088571D01*
X7071428Y-10183809D01*
X7071428Y-10421904D01*
X7023809Y-10517142D01*
X6976190Y-10564761D01*
X6880952Y-10612380D01*
X6595238Y-10612380D01*
X6500000Y-10564761D01*
X6452380Y-10517142D01*
X7357142Y-9612380D02*
X7690476Y-10612380D01*
X8023809Y-9612380D01*
X5635714Y-14136666D02*
X6111904Y-14136666D01*
X5540476Y-14422380D02*
X5873809Y-13422380D01*
X6207142Y-14422380D01*
X6730952Y-13422380D02*
X6826190Y-13422380D01*
X6921428Y-13470000D01*
X6969047Y-13517619D01*
X7016666Y-13612857D01*
X7064285Y-13803333D01*
X7064285Y-14041428D01*
X7016666Y-14231904D01*
X6969047Y-14327142D01*
X6921428Y-14374761D01*
X6826190Y-14422380D01*
X6730952Y-14422380D01*
X6635714Y-14374761D01*
X6588095Y-14327142D01*
X6540476Y-14231904D01*
X6492857Y-14041428D01*
X6492857Y-13803333D01*
X6540476Y-13612857D01*
X6588095Y-13517619D01*
X6635714Y-13470000D01*
X6730952Y-13422380D01*
X5588095Y-11565000D02*
X5492857Y-11517380D01*
X5350000Y-11517380D01*
X5207142Y-11565000D01*
X5111904Y-11660238D01*
X5064285Y-11755476D01*
X5016666Y-11945952D01*
X5016666Y-12088809D01*
X5064285Y-12279285D01*
X5111904Y-12374523D01*
X5207142Y-12469761D01*
X5350000Y-12517380D01*
X5445238Y-12517380D01*
X5588095Y-12469761D01*
X5635714Y-12422142D01*
X5635714Y-12088809D01*
X5445238Y-12088809D01*
X6064285Y-12517380D02*
X6064285Y-11517380D01*
X6635714Y-12517380D01*
X6635714Y-11517380D01*
X7111904Y-12517380D02*
X7111904Y-11517380D01*
X7350000Y-11517380D01*
X7492857Y-11565000D01*
X7588095Y-11660238D01*
X7635714Y-11755476D01*
X7683333Y-11945952D01*
X7683333Y-12088809D01*
X7635714Y-12279285D01*
X7588095Y-12374523D01*
X7492857Y-12469761D01*
X7350000Y-12517380D01*
X7111904Y-12517380D01*
X5635714Y-16041666D02*
X6111904Y-16041666D01*
X5540476Y-16327380D02*
X5873809Y-15327380D01*
X6207142Y-16327380D01*
X7064285Y-16327380D02*
X6492857Y-16327380D01*
X6778571Y-16327380D02*
X6778571Y-15327380D01*
X6683333Y-15470238D01*
X6588095Y-15565476D01*
X6492857Y-15613095D01*
X5635714Y-20486666D02*
X6111904Y-20486666D01*
X5540476Y-20772380D02*
X5873809Y-19772380D01*
X6207142Y-20772380D01*
X6492857Y-19867619D02*
X6540476Y-19820000D01*
X6635714Y-19772380D01*
X6873809Y-19772380D01*
X6969047Y-19820000D01*
X7016666Y-19867619D01*
X7064285Y-19962857D01*
X7064285Y-20058095D01*
X7016666Y-20200952D01*
X6445238Y-20772380D01*
X7064285Y-20772380D01*
X13208095Y-22312380D02*
X13779523Y-22312380D01*
X13493809Y-23312380D02*
X13493809Y-22312380D01*
X14636666Y-23312380D02*
X14065238Y-23312380D01*
X14350952Y-23312380D02*
X14350952Y-22312380D01*
X14255714Y-22455238D01*
X14160476Y-22550476D01*
X14065238Y-22598095D01*
X16383095Y-25535000D02*
X16287857Y-25487380D01*
X16145000Y-25487380D01*
X16002142Y-25535000D01*
X15906904Y-25630238D01*
X15859285Y-25725476D01*
X15811666Y-25915952D01*
X15811666Y-26058809D01*
X15859285Y-26249285D01*
X15906904Y-26344523D01*
X16002142Y-26439761D01*
X16145000Y-26487380D01*
X16240238Y-26487380D01*
X16383095Y-26439761D01*
X16430714Y-26392142D01*
X16430714Y-26058809D01*
X16240238Y-26058809D01*
X16859285Y-26487380D02*
X16859285Y-25487380D01*
X17430714Y-26487380D01*
X17430714Y-25487380D01*
X17906904Y-26487380D02*
X17906904Y-25487380D01*
X18145000Y-25487380D01*
X18287857Y-25535000D01*
X18383095Y-25630238D01*
X18430714Y-25725476D01*
X18478333Y-25915952D01*
X18478333Y-26058809D01*
X18430714Y-26249285D01*
X18383095Y-26344523D01*
X18287857Y-26439761D01*
X18145000Y-26487380D01*
X17906904Y-26487380D01*
X12922380Y-26487380D02*
X12922380Y-25487380D01*
X14112857Y-25439761D02*
X13255714Y-26725476D01*
X14636666Y-25487380D02*
X14827142Y-25487380D01*
X14922380Y-25535000D01*
X15017619Y-25630238D01*
X15065238Y-25820714D01*
X15065238Y-26154047D01*
X15017619Y-26344523D01*
X14922380Y-26439761D01*
X14827142Y-26487380D01*
X14636666Y-26487380D01*
X14541428Y-26439761D01*
X14446190Y-26344523D01*
X14398571Y-26154047D01*
X14398571Y-25820714D01*
X14446190Y-25630238D01*
X14541428Y-25535000D01*
X14636666Y-25487380D01*
X9461666Y-25487380D02*
X9795000Y-26487380D01*
X10128333Y-25487380D01*
X11033095Y-26392142D02*
X10985476Y-26439761D01*
X10842619Y-26487380D01*
X10747380Y-26487380D01*
X10604523Y-26439761D01*
X10509285Y-26344523D01*
X10461666Y-26249285D01*
X10414047Y-26058809D01*
X10414047Y-25915952D01*
X10461666Y-25725476D01*
X10509285Y-25630238D01*
X10604523Y-25535000D01*
X10747380Y-25487380D01*
X10842619Y-25487380D01*
X10985476Y-25535000D01*
X11033095Y-25582619D01*
X12033095Y-26392142D02*
X11985476Y-26439761D01*
X11842619Y-26487380D01*
X11747380Y-26487380D01*
X11604523Y-26439761D01*
X11509285Y-26344523D01*
X11461666Y-26249285D01*
X11414047Y-26058809D01*
X11414047Y-25915952D01*
X11461666Y-25725476D01*
X11509285Y-25630238D01*
X11604523Y-25535000D01*
X11747380Y-25487380D01*
X11842619Y-25487380D01*
X11985476Y-25535000D01*
X12033095Y-25582619D01*
M02*
