G04 #@! TF.GenerationSoftware,KiCad,Pcbnew,(6.0.6-0)*
G04 #@! TF.CreationDate,2022-07-25T17:11:54+09:00*
G04 #@! TF.ProjectId,livecharm-20220717,6c697665-6368-4617-926d-2d3230323230,rev?*
G04 #@! TF.SameCoordinates,PX68290a0PY2e063a0*
G04 #@! TF.FileFunction,Copper,L1,Top*
G04 #@! TF.FilePolarity,Positive*
%FSLAX46Y46*%
G04 Gerber Fmt 4.6, Leading zero omitted, Abs format (unit mm)*
G04 Created by KiCad (PCBNEW (6.0.6-0)) date 2022-07-25 17:11:54*
%MOMM*%
%LPD*%
G01*
G04 APERTURE LIST*
G04 #@! TA.AperFunction,ComponentPad*
%ADD10C,1.524000*%
G04 #@! TD*
G04 #@! TA.AperFunction,Conductor*
%ADD11C,0.250000*%
G04 #@! TD*
G04 APERTURE END LIST*
D10*
X3960000Y-8890000D03*
X3960000Y-11430000D03*
X3960000Y-13970000D03*
X3960000Y-16510000D03*
X3960000Y-19050000D03*
X3960000Y-21590000D03*
X3960000Y-24130000D03*
X3960000Y-26670000D03*
X3960000Y-29210000D03*
X3960000Y-31750000D03*
X24280000Y-13970000D03*
X24280000Y-16510000D03*
X24280000Y-19050000D03*
X24280000Y-21590000D03*
X24280000Y-24130000D03*
X24280000Y-26670000D03*
X24280000Y-29210000D03*
X24280000Y-31750000D03*
X21590000Y-17780000D03*
X19050000Y-17780000D03*
X16510000Y-17780000D03*
X13970000Y-17780000D03*
X11430000Y-17780000D03*
X8890000Y-17780000D03*
X6350000Y-17780000D03*
X12217400Y-30734000D03*
X15722600Y-30734000D03*
X11430000Y-27940000D03*
X13970000Y-27940000D03*
X16510000Y-27940000D03*
D11*
X11430000Y-27940000D02*
X11430000Y-21748750D01*
X12223750Y-20955000D02*
X20955000Y-20955000D01*
X7620000Y-9525000D02*
X7620000Y-12700000D01*
X11430000Y-21748750D02*
X12223750Y-20955000D01*
X7620000Y-12700000D02*
X8255000Y-13335000D01*
X8255000Y-13335000D02*
X20955000Y-13335000D01*
X20955000Y-20955000D02*
X21590000Y-20320000D01*
X21590000Y-13970000D02*
X21590000Y-17780000D01*
X6985000Y-8890000D02*
X7620000Y-9525000D01*
X20955000Y-13335000D02*
X21590000Y-13970000D01*
X3960000Y-8890000D02*
X6985000Y-8890000D01*
X21590000Y-20320000D02*
X21590000Y-17780000D01*
X18415000Y-13970000D02*
X19050000Y-14605000D01*
X5715000Y-11430000D02*
X6350000Y-12065000D01*
X6350000Y-12065000D02*
X6350000Y-13335000D01*
X6350000Y-13335000D02*
X6985000Y-13970000D01*
X6985000Y-13970000D02*
X18415000Y-13970000D01*
X3960000Y-11430000D02*
X5715000Y-11430000D01*
X19050000Y-14605000D02*
X19050000Y-17780000D01*
X5080000Y-14605000D02*
X10795000Y-14605000D01*
X4445000Y-13970000D02*
X5080000Y-14605000D01*
X3960000Y-13970000D02*
X4445000Y-13970000D01*
X11430000Y-15240000D02*
X11430000Y-17780000D01*
X10795000Y-14605000D02*
X11430000Y-15240000D01*
X8255000Y-15875000D02*
X8890000Y-16510000D01*
X3960000Y-16510000D02*
X4445000Y-16510000D01*
X5080000Y-15875000D02*
X8255000Y-15875000D01*
X8890000Y-16510000D02*
X8890000Y-17780000D01*
X4445000Y-16510000D02*
X5080000Y-15875000D01*
X5715000Y-19050000D02*
X6350000Y-18415000D01*
X3960000Y-19050000D02*
X5715000Y-19050000D01*
X6350000Y-18415000D02*
X6350000Y-17780000D01*
X13970000Y-24765000D02*
X13970000Y-27940000D01*
X14605000Y-24130000D02*
X13970000Y-24765000D01*
X24280000Y-24130000D02*
X14605000Y-24130000D01*
M02*
